# xmcd
# 
# Track frame offsets:
#     150
#     28742
#     61197
#     86310
#     124695
#     154815
# 
# Disc length: 2351
# 
# Revision: 8
# Processed by: cddbd v1.5.1PL0 Copyright (c) Steve Scherf et al.
# Submitted via: BonkEnc v1.0beta3
# 
DISCID=40092d06
DTITLE=Gato Barbieri - Gato
DYEAR=1991
DGENRE=Jazz
TTITLE0=Bahia/Sweet Emiliano
TTITLE1=Retorno
TTITLE2=Alma
TTITLE3=Mowgli
TTITLE4=Memories
TTITLE5=Playtime
EXTD=YEAR: 1991
EXTT0=
EXTT1=
EXTT2=
EXTT3=
EXTT4=
EXTT5=
PLAYORDER=
